<svg width="68" height="68" viewBox="0 0 68 68" fill="none" xmlns="http://www.w3.org/2000/svg">
<g id="fi_8693074">
<g clip-path="url(#clip0_1085_16102)">
<g id="Layer 2">
<path id="Vector" d="M39.207 31.1738H21.2087C19.6175 31.1738 18.0915 31.7317 16.9664 32.7246C15.8413 33.7176 15.2092 35.0643 15.2092 36.4686C15.2092 37.8729 15.8413 39.2196 16.9664 40.2126C18.0915 41.2055 19.6175 41.7634 21.2087 41.7634H40.7069C41.1046 41.7634 41.4861 41.6239 41.7674 41.3757C42.0487 41.1274 42.2067 40.7907 42.2067 40.4397V33.8212C42.2067 33.1191 41.8907 32.4457 41.3281 31.9492C40.7656 31.4527 40.0026 31.1738 39.207 31.1738Z" fill="#6CC677"/>
<path id="Vector_2" d="M52.098 43.0008V61.4345C52.0944 62.4812 51.6074 63.4841 50.7435 64.2242C49.8795 64.9643 48.7088 65.3815 47.487 65.3846H21.3577C19.7271 65.3846 18.1633 64.8297 17.0103 63.842C15.8573 62.8543 15.2096 61.5147 15.2096 60.1178V36.4174C15.2051 36.2546 15.2418 36.0929 15.3172 35.9434C15.54 36.8243 16.1085 37.6133 16.928 38.1787C17.7475 38.7441 18.7684 39.0519 19.8207 39.0508H47.487C48.7088 39.0539 49.8795 39.471 50.7435 40.2112C51.6074 40.9513 52.0944 41.9542 52.098 43.0008Z" fill="#319960"/>
<path id="Vector_3" d="M52.8157 47.002H47.5093C46.1019 47.002 44.7522 47.5537 43.7571 48.5357C42.7619 49.5178 42.2029 50.8497 42.2029 52.2385C42.2029 53.6274 42.7619 54.9593 43.7571 55.9414C44.7522 56.9234 46.1019 57.4751 47.5093 57.4751H52.8157C53.5194 57.4751 54.1942 57.1993 54.6918 56.7082C55.1894 56.2172 55.4689 55.5512 55.4689 54.8568V49.6202C55.4689 48.9258 55.1894 48.2599 54.6918 47.7688C54.1942 47.2778 53.5194 47.002 52.8157 47.002Z" fill="#FFC738"/>
<path id="Vector_4" d="M23.0702 68.0637C28.8911 68.0637 33.6098 63.3449 33.6098 57.524C33.6098 51.7031 28.8911 46.9844 23.0702 46.9844C17.2493 46.9844 12.5305 51.7031 12.5305 57.524C12.5305 63.3449 17.2493 68.0637 23.0702 68.0637Z" fill="#FFCB3D"/>
<path id="Vector_5" d="M23.071 64.7713C27.0728 64.7713 30.317 61.5272 30.317 57.5253C30.317 53.5234 27.0728 50.2793 23.071 50.2793C19.0691 50.2793 15.825 53.5234 15.825 57.5253C15.825 61.5272 19.0691 64.7713 23.071 64.7713Z" fill="#FAAA41"/>
<g id="Group">
<path id="Vector_6" d="M23.6092 61.8357H20.915C20.7702 61.8407 20.6259 61.8166 20.4906 61.7647C20.3554 61.7128 20.2319 61.6341 20.1277 61.5335C20.0235 61.4329 19.9406 61.3123 19.884 61.1789C19.8274 61.0456 19.7983 60.9022 19.7983 60.7573C19.7983 60.6125 19.8274 60.4691 19.884 60.3357C19.9406 60.2024 20.0235 60.0818 20.1277 59.9812C20.2319 59.8805 20.3554 59.8019 20.4906 59.75C20.6259 59.6981 20.7702 59.6739 20.915 59.679H23.6092C23.7521 59.679 23.8891 59.6222 23.9902 59.5212C24.0912 59.4201 24.148 59.2831 24.148 59.1402C24.148 58.9972 24.0912 58.8602 23.9902 58.7591C23.8891 58.6581 23.7521 58.6013 23.6092 58.6013H22.5315C22.1726 58.6093 21.8157 58.5454 21.4818 58.4136C21.1479 58.2817 20.8437 58.0845 20.5871 57.8334C20.3304 57.5824 20.1265 57.2826 19.9873 56.9517C19.8481 56.6208 19.7764 56.2655 19.7764 55.9065C19.7764 55.5475 19.8481 55.1921 19.9873 54.8612C20.1265 54.5303 20.3304 54.2305 20.5871 53.9795C20.8437 53.7285 21.1479 53.5312 21.4818 53.3994C21.8157 53.2675 22.1726 53.2037 22.5315 53.2116H25.2257C25.3705 53.2065 25.5148 53.2307 25.65 53.2826C25.7853 53.3345 25.9087 53.4131 26.0129 53.5138C26.1171 53.6144 26.2 53.735 26.2566 53.8683C26.3132 54.0017 26.3424 54.1451 26.3424 54.2899C26.3424 54.4348 26.3132 54.5782 26.2566 54.7115C26.2 54.8449 26.1171 54.9655 26.0129 55.0661C25.9087 55.1667 25.7853 55.2454 25.65 55.2973C25.5148 55.3492 25.3705 55.3733 25.2257 55.3683H22.5315C22.3886 55.3683 22.2515 55.425 22.1505 55.5261C22.0494 55.6271 21.9926 55.7642 21.9926 55.9071C21.9926 56.05 22.0494 56.1871 22.1505 56.2881C22.2515 56.3892 22.3886 56.446 22.5315 56.446H23.6092C23.9681 56.438 24.3249 56.5019 24.6588 56.6337C24.9927 56.7656 25.2969 56.9628 25.5536 57.2138C25.8102 57.4649 26.0141 57.7646 26.1533 58.0955C26.2925 58.4264 26.3643 58.7818 26.3643 59.1408C26.3643 59.4998 26.2925 59.8552 26.1533 60.1861C26.0141 60.517 25.8102 60.8168 25.5536 61.0678C25.2969 61.3188 24.9927 61.516 24.6588 61.6479C24.3249 61.7798 23.9681 61.8436 23.6092 61.8357Z" fill="#FFEA94"/>
<path id="Vector_7" d="M23.0699 55.3689C22.7839 55.3686 22.5098 55.2547 22.3078 55.0524C22.1057 54.8501 21.9922 54.5758 21.9922 54.2899V52.6734C21.9922 52.3876 22.1057 52.1135 22.3078 51.9113C22.5099 51.7092 22.784 51.5957 23.0699 51.5957C23.3557 51.5957 23.6298 51.7092 23.8319 51.9113C24.034 52.1135 24.1475 52.3876 24.1475 52.6734V54.2899C24.1475 54.5758 24.034 54.8501 23.832 55.0524C23.6299 55.2547 23.3558 55.3686 23.0699 55.3689Z" fill="#FFEA94"/>
<path id="Vector_8" d="M23.0699 63.4516C22.9283 63.4516 22.7882 63.4237 22.6575 63.3695C22.5267 63.3154 22.4079 63.236 22.3078 63.1359C22.2078 63.0359 22.1284 62.917 22.0742 62.7863C22.0201 62.6555 21.9922 62.5154 21.9922 62.3739V60.7574C21.9922 60.6158 22.0201 60.4757 22.0742 60.345C22.1284 60.2142 22.2078 60.0954 22.3078 59.9953C22.4079 59.8953 22.5267 59.8159 22.6575 59.7617C22.7882 59.7076 22.9283 59.6797 23.0699 59.6797C23.2114 59.6797 23.3515 59.7076 23.4823 59.7617C23.613 59.8159 23.7318 59.8953 23.8319 59.9953C23.932 60.0954 24.0114 60.2142 24.0655 60.345C24.1197 60.4757 24.1475 60.6158 24.1475 60.7574V62.3739C24.1475 62.5154 24.1197 62.6555 24.0655 62.7863C24.0114 62.917 23.932 63.0359 23.8319 63.1359C23.7318 63.236 23.613 63.3154 23.4823 63.3695C23.3515 63.4237 23.2114 63.4516 23.0699 63.4516Z" fill="#FFEA94"/>
</g>
</g>
<g id="Group 43">
<path id="Vector_9" d="M8.02259 20.6311C12.4533 20.6311 16.0452 17.0393 16.0452 12.6085C16.0452 8.17777 12.4533 4.58594 8.02259 4.58594C3.59184 4.58594 0 8.17777 0 12.6085C0 17.0393 3.59184 20.6311 8.02259 20.6311Z" fill="#FFCB3D"/>
<path id="Vector_10" d="M8.02347 18.1248C11.0696 18.1248 13.539 15.6554 13.539 12.6093C13.539 9.56314 11.0696 7.09375 8.02347 7.09375C4.97732 7.09375 2.50793 9.56314 2.50793 12.6093C2.50793 15.6554 4.97732 18.1248 8.02347 18.1248Z" fill="#FAAA41"/>
<g id="Group_2">
<path id="Vector_11" d="M8.43112 15.8931H6.38034C6.27014 15.897 6.16029 15.8786 6.05734 15.8391C5.95439 15.7996 5.86045 15.7397 5.78113 15.6631C5.7018 15.5865 5.63872 15.4947 5.59563 15.3932C5.55254 15.2917 5.53033 15.1826 5.53033 15.0723C5.53033 14.962 5.55254 14.8529 5.59563 14.7514C5.63872 14.6499 5.7018 14.5581 5.78113 14.4815C5.86045 14.4049 5.95439 14.345 6.05734 14.3055C6.16029 14.266 6.27014 14.2476 6.38034 14.2515H8.43112C8.5399 14.2515 8.64422 14.2083 8.72114 14.1314C8.79806 14.0544 8.84127 13.9501 8.84127 13.8413C8.84127 13.7326 8.79806 13.6282 8.72114 13.5513C8.64422 13.4744 8.5399 13.4312 8.43112 13.4312H7.61081C7.33761 13.4372 7.06596 13.3886 6.81181 13.2883C6.55765 13.1879 6.3261 13.0378 6.13075 12.8467C5.9354 12.6556 5.78019 12.4274 5.67422 12.1756C5.56826 11.9237 5.51367 11.6532 5.51367 11.3799C5.51367 11.1066 5.56826 10.8361 5.67422 10.5843C5.78019 10.3324 5.9354 10.1042 6.13075 9.91313C6.3261 9.72205 6.55765 9.57192 6.81181 9.47155C7.06596 9.37118 7.33761 9.32259 7.61081 9.32863H9.66158C9.77179 9.32477 9.88164 9.34315 9.98459 9.38267C10.0875 9.42218 10.1815 9.48203 10.2608 9.55863C10.3401 9.63522 10.4032 9.72701 10.4463 9.82852C10.4894 9.93003 10.5116 10.0392 10.5116 10.1494C10.5116 10.2597 10.4894 10.3689 10.4463 10.4704C10.4032 10.5719 10.3401 10.6637 10.2608 10.7403C10.1815 10.8169 10.0875 10.8767 9.98459 10.9162C9.88164 10.9557 9.77179 10.9741 9.66158 10.9703H7.61081C7.50203 10.9703 7.3977 11.0135 7.32078 11.0904C7.24386 11.1673 7.20065 11.2716 7.20065 11.3804C7.20065 11.4892 7.24386 11.5935 7.32078 11.6704C7.3977 11.7473 7.50203 11.7906 7.61081 11.7906H8.43112C8.70431 11.7845 8.97596 11.8331 9.23012 11.9335C9.48428 12.0339 9.71583 12.184 9.91117 12.3751C10.1065 12.5661 10.2617 12.7943 10.3677 13.0462C10.4737 13.2981 10.5283 13.5686 10.5283 13.8418C10.5283 14.1151 10.4737 14.3856 10.3677 14.6375C10.2617 14.8894 10.1065 15.1175 9.91117 15.3086C9.71583 15.4997 9.48428 15.6498 9.23012 15.7502C8.97596 15.8506 8.70431 15.8992 8.43112 15.8931Z" fill="#FFEA94"/>
<path id="Vector_12" d="M8.01941 10.9717C7.80175 10.9714 7.59311 10.8848 7.4393 10.7308C7.28549 10.5768 7.1991 10.368 7.1991 10.1504V8.91992C7.1991 8.70236 7.28552 8.49371 7.43936 8.33987C7.5932 8.18603 7.80185 8.09961 8.01941 8.09961C8.23697 8.09961 8.44562 8.18603 8.59945 8.33987C8.75329 8.49371 8.83972 8.70236 8.83972 8.91992V10.1504C8.83972 10.368 8.75332 10.5768 8.59951 10.7308C8.44571 10.8848 8.23706 10.9714 8.01941 10.9717Z" fill="#FFEA94"/>
<path id="Vector_13" d="M8.01941 17.125C7.91168 17.125 7.80501 17.1038 7.70549 17.0625C7.60596 17.0213 7.51553 16.9609 7.43936 16.8847C7.36319 16.8086 7.30276 16.7181 7.26154 16.6186C7.22031 16.5191 7.1991 16.4124 7.1991 16.3047V15.0742C7.1991 14.9665 7.22031 14.8598 7.26154 14.7603C7.30276 14.6608 7.36319 14.5703 7.43936 14.4942C7.51553 14.418 7.60596 14.3576 7.70549 14.3163C7.80501 14.2751 7.91168 14.2539 8.01941 14.2539C8.12713 14.2539 8.2338 14.2751 8.33333 14.3163C8.43285 14.3576 8.52328 14.418 8.59945 14.4942C8.67563 14.5703 8.73605 14.6608 8.77727 14.7603C8.8185 14.8598 8.83972 14.9665 8.83972 15.0742V16.3047C8.83972 16.4124 8.8185 16.5191 8.77727 16.6186C8.73605 16.7181 8.67563 16.8086 8.59945 16.8847C8.52328 16.9609 8.43285 17.0213 8.33333 17.0625C8.2338 17.1038 8.12713 17.125 8.01941 17.125Z" fill="#FFEA94"/>
</g>
</g>
<g id="Group 44">
<path id="Vector_14" d="M34.0021 16.0452C38.4328 16.0452 42.0247 12.4533 42.0247 8.02259C42.0247 3.59184 38.4328 0 34.0021 0C29.5713 0 25.9795 3.59184 25.9795 8.02259C25.9795 12.4533 29.5713 16.0452 34.0021 16.0452Z" fill="#FFCB3D"/>
<path id="Vector_15" d="M34.003 13.5389C37.0491 13.5389 39.5185 11.0695 39.5185 8.02334C39.5185 4.9772 37.0491 2.50781 34.003 2.50781C30.9568 2.50781 28.4874 4.9772 28.4874 8.02334C28.4874 11.0695 30.9568 13.5389 34.003 13.5389Z" fill="#FAAA41"/>
<g id="Group_3">
<path id="Vector_16" d="M34.4131 11.3052H32.3623C32.2521 11.3091 32.1422 11.2907 32.0393 11.2512C31.9363 11.2117 31.8424 11.1518 31.7631 11.0752C31.6837 10.9986 31.6206 10.9068 31.5776 10.8053C31.5345 10.7038 31.5123 10.5947 31.5123 10.4844C31.5123 10.3741 31.5345 10.265 31.5776 10.1635C31.6206 10.062 31.6837 9.9702 31.7631 9.8936C31.8424 9.817 31.9363 9.75716 32.0393 9.71764C32.1422 9.67813 32.2521 9.65975 32.3623 9.6636H34.4131C34.5218 9.6636 34.6262 9.62039 34.7031 9.54347C34.78 9.46655 34.8232 9.36222 34.8232 9.25344C34.8232 9.14466 34.78 9.04034 34.7031 8.96342C34.6262 8.8865 34.5218 8.84329 34.4131 8.84329H33.5927C33.3195 8.84933 33.0479 8.80074 32.7937 8.70037C32.5396 8.6 32.308 8.44986 32.1127 8.25879C31.9173 8.06771 31.7621 7.83954 31.6562 7.58766C31.5502 7.33578 31.4956 7.06527 31.4956 6.79201C31.4956 6.51875 31.5502 6.24824 31.6562 5.99637C31.7621 5.74449 31.9173 5.51632 32.1127 5.32524C32.308 5.13416 32.5396 4.98403 32.7937 4.88366C33.0479 4.78329 33.3195 4.73469 33.5927 4.74074H35.6435C35.7537 4.73688 35.8636 4.75526 35.9665 4.79478C36.0695 4.83429 36.1634 4.89413 36.2427 4.97073C36.3221 5.04733 36.3851 5.13912 36.4282 5.24063C36.4713 5.34213 36.4935 5.45128 36.4935 5.56155C36.4935 5.67182 36.4713 5.78096 36.4282 5.88247C36.3851 5.98397 36.3221 6.07576 36.2427 6.15236C36.1634 6.22896 36.0695 6.2888 35.9665 6.32832C35.8636 6.36783 35.7537 6.38621 35.6435 6.38236H33.5927C33.484 6.38236 33.3796 6.42557 33.3027 6.50249C33.2258 6.57941 33.1826 6.68374 33.1826 6.79252C33.1826 6.9013 33.2258 7.00562 33.3027 7.08254C33.3796 7.15946 33.484 7.20267 33.5927 7.20267H34.4131C34.6862 7.19663 34.9579 7.24522 35.2121 7.34559C35.4662 7.44596 35.6978 7.5961 35.8931 7.78717C36.0885 7.97825 36.2437 8.20642 36.3496 8.4583C36.4556 8.71018 36.5102 8.98069 36.5102 9.25395C36.5102 9.52721 36.4556 9.79772 36.3496 10.0496C36.2437 10.3015 36.0885 10.5296 35.8931 10.7207C35.6978 10.9118 35.4662 11.0619 35.2121 11.1623C34.9579 11.2627 34.6862 11.3113 34.4131 11.3052Z" fill="#FFEA94"/>
<path id="Vector_17" d="M34.0013 6.38381C33.7837 6.38354 33.575 6.29689 33.4212 6.1429C33.2674 5.9889 33.181 5.78015 33.181 5.56249V4.33203C33.181 4.11447 33.2675 3.90582 33.4213 3.75198C33.5751 3.59814 33.7838 3.51172 34.0013 3.51172C34.2189 3.51172 34.4275 3.59814 34.5814 3.75198C34.7352 3.90582 34.8217 4.11447 34.8217 4.33203V5.56249C34.8217 5.78015 34.7353 5.9889 34.5814 6.1429C34.4276 6.29689 34.219 6.38354 34.0013 6.38381Z" fill="#FFEA94"/>
<path id="Vector_18" d="M34.0013 12.5371C33.8936 12.5371 33.7869 12.5159 33.6874 12.4747C33.5879 12.4334 33.4975 12.373 33.4213 12.2968C33.3451 12.2207 33.2847 12.1302 33.2435 12.0307C33.2022 11.9312 33.181 11.8245 33.181 11.7168V10.4863C33.181 10.3786 33.2022 10.2719 33.2435 10.1724C33.2847 10.0729 33.3451 9.98245 33.4213 9.90628C33.4975 9.83011 33.5879 9.76968 33.6874 9.72846C33.7869 9.68723 33.8936 9.66602 34.0013 9.66602C34.1091 9.66602 34.2157 9.68723 34.3153 9.72846C34.4148 9.76968 34.5052 9.83011 34.5814 9.90628C34.6576 9.98245 34.718 10.0729 34.7592 10.1724C34.8004 10.2719 34.8217 10.3786 34.8217 10.4863V11.7168C34.8217 11.8245 34.8004 11.9312 34.7592 12.0307C34.718 12.1302 34.6576 12.2207 34.5814 12.2968C34.5052 12.373 34.4148 12.4334 34.3153 12.4747C34.2157 12.5159 34.1091 12.5371 34.0013 12.5371Z" fill="#FFEA94"/>
</g>
</g>
<g id="Group 45">
<path id="Vector_19" d="M59.9774 20.6311C64.4082 20.6311 68 17.0393 68 12.6085C68 8.17777 64.4082 4.58594 59.9774 4.58594C55.5467 4.58594 51.9548 8.17777 51.9548 12.6085C51.9548 17.0393 55.5467 20.6311 59.9774 20.6311Z" fill="#FFCB3D"/>
<path id="Vector_20" d="M59.9783 18.1248C63.0244 18.1248 65.4938 15.6554 65.4938 12.6093C65.4938 9.56314 63.0244 7.09375 59.9783 7.09375C56.9322 7.09375 54.4628 9.56314 54.4628 12.6093C54.4628 15.6554 56.9322 18.1248 59.9783 18.1248Z" fill="#FAAA41"/>
<g id="Group_4">
<path id="Vector_21" d="M60.3869 15.8931H58.3362C58.2259 15.897 58.1161 15.8786 58.0131 15.8391C57.9102 15.7996 57.8163 15.7397 57.7369 15.6631C57.6576 15.5865 57.5945 15.4947 57.5514 15.3932C57.5084 15.2917 57.4861 15.1826 57.4861 15.0723C57.4861 14.962 57.5084 14.8529 57.5514 14.7514C57.5945 14.6499 57.6576 14.5581 57.7369 14.4815C57.8163 14.4049 57.9102 14.345 58.0131 14.3055C58.1161 14.266 58.2259 14.2476 58.3362 14.2515H60.3869C60.4957 14.2515 60.6 14.2083 60.677 14.1314C60.7539 14.0544 60.7971 13.9501 60.7971 13.8413C60.7971 13.7326 60.7539 13.6282 60.677 13.5513C60.6 13.4744 60.4957 13.4312 60.3869 13.4312H59.5666C59.2934 13.4372 59.0218 13.3886 58.7676 13.2883C58.5135 13.1879 58.2819 13.0378 58.0866 12.8467C57.8912 12.6556 57.736 12.4274 57.63 12.1756C57.5241 11.9237 57.4695 11.6532 57.4695 11.3799C57.4695 11.1066 57.5241 10.8361 57.63 10.5843C57.736 10.3324 57.8912 10.1042 58.0866 9.91313C58.2819 9.72205 58.5135 9.57192 58.7676 9.47155C59.0218 9.37118 59.2934 9.32259 59.5666 9.32863H61.6174C61.7276 9.32477 61.8374 9.34315 61.9404 9.38267C62.0433 9.42218 62.1373 9.48203 62.2166 9.55863C62.2959 9.63522 62.359 9.72701 62.4021 9.82852C62.4452 9.93003 62.4674 10.0392 62.4674 10.1494C62.4674 10.2597 62.4452 10.3689 62.4021 10.4704C62.359 10.5719 62.2959 10.6637 62.2166 10.7403C62.1373 10.8169 62.0433 10.8767 61.9404 10.9162C61.8374 10.9557 61.7276 10.9741 61.6174 10.9703H59.5666C59.4578 10.9703 59.3535 11.0135 59.2766 11.0904C59.1997 11.1673 59.1565 11.2716 59.1565 11.3804C59.1565 11.4892 59.1997 11.5935 59.2766 11.6704C59.3535 11.7473 59.4578 11.7906 59.5666 11.7906H60.3869C60.6601 11.7845 60.9318 11.8331 61.1859 11.9335C61.4401 12.0339 61.6716 12.184 61.867 12.3751C62.0623 12.5661 62.2175 12.7943 62.3235 13.0462C62.4295 13.2981 62.4841 13.5686 62.4841 13.8418C62.4841 14.1151 62.4295 14.3856 62.3235 14.6375C62.2175 14.8894 62.0623 15.1175 61.867 15.3086C61.6716 15.4997 61.4401 15.6498 61.1859 15.7502C60.9318 15.8506 60.6601 15.8992 60.3869 15.8931Z" fill="#FFEA94"/>
<path id="Vector_22" d="M59.9752 10.9717C59.7576 10.9714 59.5489 10.8848 59.3951 10.7308C59.2413 10.5768 59.1549 10.368 59.1549 10.1504V8.91992C59.1549 8.70236 59.2413 8.49371 59.3952 8.33987C59.549 8.18603 59.7577 8.09961 59.9752 8.09961C60.1928 8.09961 60.4014 8.18603 60.5553 8.33987C60.7091 8.49371 60.7955 8.70236 60.7955 8.91992V10.1504C60.7955 10.368 60.7091 10.5768 60.5553 10.7308C60.4015 10.8848 60.1929 10.9714 59.9752 10.9717Z" fill="#FFEA94"/>
<path id="Vector_23" d="M59.9752 17.125C59.8675 17.125 59.7608 17.1038 59.6613 17.0625C59.5618 17.0213 59.4713 16.9609 59.3952 16.8847C59.319 16.8086 59.2586 16.7181 59.2173 16.6186C59.1761 16.5191 59.1549 16.4124 59.1549 16.3047V15.0742C59.1549 14.9665 59.1761 14.8598 59.2173 14.7603C59.2586 14.6608 59.319 14.5703 59.3952 14.4942C59.4713 14.418 59.5618 14.3576 59.6613 14.3163C59.7608 14.2751 59.8675 14.2539 59.9752 14.2539C60.0829 14.2539 60.1896 14.2751 60.2891 14.3163C60.3887 14.3576 60.4791 14.418 60.5553 14.4942C60.6314 14.5703 60.6919 14.6608 60.7331 14.7603C60.7743 14.8598 60.7955 14.9665 60.7955 15.0742V16.3047C60.7955 16.4124 60.7743 16.5191 60.7331 16.6186C60.6919 16.7181 60.6314 16.8086 60.5553 16.8847C60.4791 16.9609 60.3887 17.0213 60.2891 17.0625C60.1896 17.1038 60.0829 17.125 59.9752 17.125Z" fill="#FFEA94"/>
</g>
</g>
<g id="XMLID_2_">
<path id="Vector_24" d="M16.6976 26.3494L16.23 26.701C15.8176 27.011 16.0343 27.7885 16.5982 28.022L20.3082 29.5583C20.7627 29.7465 21.1614 29.4468 21.1068 28.9579L20.6616 24.9671C20.594 24.3606 19.9072 23.9364 19.4948 24.2464L19.0273 24.598L15.672 20.135L13.3424 21.8864L16.6977 26.3494L16.6976 26.3494Z" fill="#CFE0E7"/>
</g>
<g id="XMLID_2__2">
<path id="Vector_25" d="M53.0946 26.3494L53.5622 26.701C53.9746 27.011 53.7579 27.7885 53.194 28.022L49.484 29.5583C49.0295 29.7465 48.6309 29.4468 48.6854 28.9579L49.1306 24.9671C49.1983 24.3606 49.885 23.9364 50.2974 24.2464L50.765 24.598L54.1203 20.135L56.4498 21.8864L53.0945 26.3494L53.0946 26.3494Z" fill="#CFE0E7"/>
</g>
<g id="XMLID_2__3">
<path id="Vector_26" d="M35.6622 24.9272L36.2472 24.9314C36.7631 24.9352 37.0517 25.6889 36.7374 26.2122L34.6701 29.6546C34.4169 30.0763 33.9182 30.0727 33.671 29.6473L31.6539 26.1752C31.3474 25.6475 31.6468 24.898 32.1627 24.9017L32.7477 24.906L32.7883 19.3226L35.7027 19.3437L35.6621 24.9272L35.6622 24.9272Z" fill="#CFE0E7"/>
</g>
</g>
</g>
<defs>
<clipPath id="clip0_1085_16102">
<rect width="68" height="68" rx="12" fill="white"/>
</clipPath>
</defs>
</svg>
