<svg xmlns="http://www.w3.org/2000/svg" width="24" height="24" viewBox="0 0 24 24" fill="none">
    <path opacity="0.32" d="M22 10.5C22 13.2058 21.9268 15.3259 21.8596 16.7018C21.8139 17.6385 20.9066 18.311 19.9771 18.1857C18.4531 17.9803 15.8791 17.75 12 17.75C8.1209 17.75 5.54695 17.9803 4.02285 18.1857C3.09341 18.311 2.18614 17.6385 2.14039 16.7018C2.07321 15.3259 2 13.2058 2 10.5C2 7.79425 2.07321 5.67415 2.14039 4.29827C2.18614 3.36155 3.09341 2.68908 4.02285 2.81432C5.54695 3.01969 8.1209 3.25 12 3.25C15.8791 3.25 18.4531 3.01969 19.9771 2.81432C20.9066 2.68908 21.8139 3.36155 21.8596 4.29827C21.9268 5.67415 22 7.79425 22 10.5Z" fill="#637381"/>
    <path d="M5.59096 18.0096C5.28385 18.7424 4.94579 19.6106 4.65668 20.5001C4.5685 20.7714 4.73269 21.0577 5.01662 21.0853C5.48092 21.1304 5.97612 21.1092 6.35562 21.0767C6.76872 21.0413 7.13172 20.805 7.35657 20.4567C7.94702 19.542 8.51881 18.5894 8.97868 17.8008C7.63073 17.8483 6.50815 17.9246 5.59096 18.0096Z" fill="#637381"/>
    <path d="M15.022 17.8008C15.4818 18.5894 16.0536 19.542 16.6441 20.4567C16.8689 20.805 17.2319 21.0413 17.645 21.0767C18.0245 21.1092 18.5197 21.1304 18.984 21.0853C19.268 21.0577 19.4321 20.7714 19.344 20.5001C19.0549 19.6106 18.7168 18.7424 18.4097 18.0097C17.4925 17.9247 16.37 17.8484 15.022 17.8008Z" fill="#637381"/>
    <path d="M15.4724 7.00012H7.88937C7.77326 6.99821 7.65794 7.01943 7.55011 7.06254C7.44229 7.10566 7.34412 7.1698 7.26134 7.25124C7.17856 7.33268 7.11282 7.42979 7.06795 7.53689C7.02308 7.644 6.99998 7.75896 7 7.87509V13.1249C7 13.357 7.09218 13.5795 7.25627 13.7436C7.42036 13.9077 7.64291 13.9999 7.87497 13.9999H15.4724C15.5886 14.0018 15.7039 13.9806 15.8117 13.9375C15.9195 13.8943 16.0177 13.8302 16.1005 13.7488C16.1833 13.6673 16.249 13.5702 16.2939 13.4631C16.3387 13.356 16.3618 13.241 16.3618 13.1249V7.87509C16.3618 7.75896 16.3387 7.644 16.2939 7.53689C16.249 7.42979 16.1833 7.33268 16.1005 7.25124C16.0177 7.1698 15.9195 7.10566 15.8117 7.06254C15.7039 7.01943 15.5886 6.99821 15.4724 7.00012ZM11.5837 12.2499H11.274C11.2135 12.2499 11.1544 12.2312 11.1048 12.1964C11.0552 12.1616 11.0175 12.1124 10.9968 12.0555L10.8636 11.6666H9.5817L9.44848 12.0555C9.42779 12.1124 9.39009 12.1616 9.3405 12.1964C9.2909 12.2312 9.2318 12.2499 9.17122 12.2499H8.86156C8.81501 12.2497 8.76919 12.2384 8.72793 12.2168C8.68666 12.1953 8.65115 12.1642 8.62437 12.1261C8.59758 12.0881 8.58029 12.0441 8.57395 11.998C8.56761 11.9519 8.57239 11.905 8.58791 11.8611L9.5673 9.05972C9.59717 8.97364 9.65308 8.89898 9.72727 8.84608C9.80146 8.79318 9.89026 8.76465 9.98138 8.76446H10.4639C10.555 8.76465 10.6438 8.79318 10.718 8.84608C10.7922 8.89898 10.8481 8.97364 10.878 9.05972L11.8573 11.8755C11.8701 11.9185 11.8727 11.9639 11.8651 12.0081C11.8574 12.0523 11.8397 12.0942 11.8132 12.1304C11.7867 12.1667 11.7522 12.1963 11.7124 12.217C11.6726 12.2378 11.6286 12.249 11.5837 12.2499ZM14.7451 11.9583C14.7451 12.0356 14.7144 12.1098 14.6597 12.1645C14.605 12.2192 14.5308 12.2499 14.4535 12.2499H14.1618C14.1197 12.2501 14.0781 12.2408 14.0401 12.2227C14.0021 12.2047 13.9686 12.1783 13.9422 12.1455C13.7807 12.2149 13.6066 12.2505 13.4309 12.2499C13.0947 12.2323 12.778 12.0864 12.5463 11.8422C12.3146 11.598 12.1854 11.2741 12.1854 10.9375C12.1854 10.6008 12.3146 10.277 12.5463 10.0328C12.778 9.7886 13.0947 9.64264 13.4309 9.62503C13.5806 9.62734 13.729 9.6541 13.8701 9.70425V9.05972C13.8701 8.98237 13.9009 8.90818 13.9556 8.85349C14.0103 8.79879 14.0844 8.76806 14.1618 8.76806H14.4535C14.5308 8.76806 14.605 8.79879 14.6597 8.85349C14.7144 8.90818 14.7451 8.98237 14.7451 9.05972V11.9583Z" fill="#637381"/>
    <path d="M9.88574 10.7911H10.5627L10.2242 9.82251L9.88574 10.7911Z" fill="#637381"/>
    <path d="M13.43 10.5007C13.343 10.5007 13.2579 10.5266 13.1856 10.575C13.1133 10.6234 13.057 10.6923 13.0238 10.7727C12.9907 10.8532 12.9822 10.9417 12.9994 11.027C13.0167 11.1124 13.0589 11.1906 13.1207 11.2519C13.1825 11.3132 13.2611 11.3547 13.3465 11.3713C13.432 11.3878 13.5204 11.3786 13.6006 11.3448C13.6808 11.311 13.7492 11.2541 13.797 11.1814C13.8448 11.1087 13.87 11.0234 13.8693 10.9364C13.8693 10.8789 13.8579 10.8219 13.8358 10.7688C13.8137 10.7157 13.7812 10.6676 13.7404 10.6271C13.6996 10.5865 13.6511 10.5545 13.5978 10.5328C13.5446 10.5112 13.4875 10.5002 13.43 10.5007Z" fill="#637381"/>
</svg>