<svg width="24" height="24" viewBox="0 0 24 24" fill="none" xmlns="http://www.w3.org/2000/svg">
<path opacity="0.32" d="M19 4H14.979C13.334 4 12 5.334 12 6.979C12 5.334 10.666 4 9.021 4H5C3.343 4 2 5.343 2 7V17C2 18.657 3.343 20 5 20H10.277C10.623 20.595 11.261 21 12 21C12.739 21 13.376 20.595 13.723 20H19C20.657 20 22 18.657 22 17V7C22 5.343 20.657 4 19 4Z" fill="#637381"/>
<path d="M7.99902 16.0001C7.99902 15.8651 7.99902 13.2011 7.99902 8.30908H5.99902C5.99902 13.2011 5.99902 15.8651 5.99902 16.0001C5.99902 16.5521 6.44702 17.0001 6.99902 17.0001C7.55102 17.0001 7.99902 16.5521 7.99902 16.0001Z" fill="#637381"/>
<path d="M4.5 10.409C4.5 12.066 5.619 13 7 13C8.381 13 9.5 12.066 9.5 10.409C9.5 8.752 8.381 7 7 7C5.619 7 4.5 8.752 4.5 10.409Z" fill="#637381"/>
<path d="M18.999 9C18.813 9 15.185 9 14.999 9C14.447 9 13.999 9.448 13.999 10C13.999 10.552 14.447 11 14.999 11C15.185 11 18.813 11 18.999 11C19.551 11 19.999 10.552 19.999 10C19.999 9.448 19.551 9 18.999 9Z" fill="#637381"/>
<path d="M18.999 13C18.813 13 15.185 13 14.999 13C14.447 13 13.999 13.448 13.999 14C13.999 14.552 14.447 15 14.999 15C15.185 15 18.813 15 18.999 15C19.551 15 19.999 14.552 19.999 14C19.999 13.448 19.551 13 18.999 13Z" fill="#637381"/>
</svg>
