<svg width="24" height="24" viewBox="0 0 24 24" fill="none" xmlns="http://www.w3.org/2000/svg">
<g id="fi_6463145">
<g id="Glyph" opacity="0.32">
<path id="Vector" d="M19 6V10.37C18.2912 10.1299 17.5484 10.0049 16.8 10C15.244 9.99836 13.7345 10.5304 12.5234 11.5074C11.3123 12.4843 10.4729 13.8471 10.1453 15.3682C9.81766 16.8893 10.0216 18.4768 10.7231 19.8657C11.4247 21.2546 12.5813 22.3609 14 23H6C5.34339 23 4.69321 22.8707 4.08658 22.6194C3.47995 22.3681 2.92876 21.9998 2.46447 21.5355C2.00017 21.0712 1.63188 20.52 1.3806 19.9134C1.12933 19.3068 1 18.6566 1 18V6C1 4.67392 1.52678 3.40215 2.46447 2.46447C3.40215 1.52678 4.67392 1 6 1H14C14.6566 1 15.3068 1.12933 15.9134 1.3806C16.52 1.63188 17.0712 2.00017 17.5355 2.46447C17.9998 2.92876 18.3681 3.47995 18.6194 4.08658C18.8707 4.69321 19 5.34339 19 6Z" fill="#1AF2E5"/>
</g>
<path id="Vector_2" d="M22.4468 22.6952C22.3538 22.7889 22.2432 22.8633 22.1214 22.9141C21.9995 22.9648 21.8688 22.991 21.7368 22.991C21.6048 22.991 21.4741 22.9648 21.3522 22.9141C21.2303 22.8633 21.1197 22.7889 21.0268 22.6952L19.1468 20.8052C18.1482 21.4552 16.9441 21.7123 15.7671 21.5269C14.59 21.3415 13.5234 20.7266 12.773 19.801C12.0227 18.8754 11.6417 17.7046 11.7038 16.5147C11.7658 15.3247 12.2664 14.1999 13.109 13.3574C13.9515 12.5148 15.0763 12.0142 16.2663 11.9522C17.4562 11.8901 18.627 12.2711 19.5526 13.0214C20.4782 13.7718 21.0931 14.8384 21.2785 16.0155C21.4639 17.1925 21.2068 18.3965 20.5568 19.3952L22.4468 21.2752C22.5405 21.3681 22.6149 21.4787 22.6657 21.6006C22.7164 21.7225 22.7426 21.8532 22.7426 21.9852C22.7426 22.1172 22.7164 22.2479 22.6657 22.3697C22.6149 22.4916 22.5405 22.6022 22.4468 22.6952ZM14.7368 5.35517C14.7368 5.08995 14.6314 4.8356 14.4439 4.64806C14.2563 4.46053 14.002 4.35517 13.7368 4.35517H11.4368C11.3055 4.34401 11.1732 4.35882 11.0476 4.39876C10.922 4.4387 10.8055 4.50299 10.7048 4.58796C10.5013 4.75955 10.3743 5.00495 10.3518 5.27017C10.3292 5.53539 10.413 5.79869 10.5846 6.00217C10.7562 6.20565 11.0016 6.33263 11.2668 6.35517L10.1668 7.35517L9.28677 6.53517C9.10132 6.36079 8.85634 6.26371 8.60177 6.26371C8.34721 6.26371 8.10223 6.36079 7.91678 6.53517L5.04677 9.25517C4.95305 9.34813 4.87865 9.45873 4.82788 9.58059C4.77712 9.70245 4.75098 9.83316 4.75098 9.96517C4.75098 10.0972 4.77712 10.2279 4.82788 10.3497C4.87865 10.4716 4.95305 10.5822 5.04677 10.6752C5.22731 10.8649 5.47506 10.9762 5.73677 10.9852C5.99286 10.9868 6.23983 10.8902 6.42677 10.7152L8.60677 8.64517L9.49678 9.47517C9.68223 9.64954 9.92721 9.74662 10.1818 9.74662C10.4363 9.74662 10.6813 9.64954 10.8668 9.47517L12.7368 7.68517C12.7368 7.95039 12.8421 8.20474 13.0297 8.39227C13.2172 8.57981 13.4716 8.68517 13.7368 8.68517C14.002 8.68517 14.2563 8.57981 14.4439 8.39227C14.6314 8.20474 14.7368 7.95039 14.7368 7.68517V5.35517Z" fill="#02D2C5"/>
</g>
</svg>
