<svg width="24" height="24" viewBox="0 0 24 24" fill="none" xmlns="http://www.w3.org/2000/svg">
<path opacity="0.32" d="M15.001 18H7.00098C4.79198 18 3.00098 16.209 3.00098 14V5C3.00098 3.895 3.89598 3 5.00098 3H17.001C18.106 3 19.001 3.895 19.001 5V14C19.001 16.209 17.21 18 15.001 18Z" fill="#637381"/>
<path d="M18.999 7V14H19.999C21.104 14 21.999 13.105 21.999 12V9C21.999 7.895 21.104 7 19.999 7H18.999Z" fill="#637381"/>
<path d="M18.5 18C18.114 18 3.886 18 3.5 18C2.672 18 2 18.672 2 19.5C2 20.328 2.672 21 3.5 21C3.886 21 18.114 21 18.5 21C19.328 21 20 20.328 20 19.5C20 18.672 19.328 18 18.5 18Z" fill="#637381"/>
</svg>
