<svg width="24" height="24" viewBox="0 0 24 24" fill="none" xmlns="http://www.w3.org/2000/svg">
<path opacity="0.32" d="M18.6669 22.0314H5.33337C3.49224 22.0314 2 20.5392 2 18.698V8.4368C2 7.22567 2.65668 6.11121 3.71447 5.52343L10.3812 1.82005C11.3879 1.26115 12.6124 1.26115 13.619 1.82005L20.2858 5.52343C21.3436 6.11121 22.0002 7.22678 22.0002 8.4368V18.698C22.0002 20.5392 20.508 22.0314 18.6669 22.0314Z" fill="#637381"/>
<path d="M17.1444 17.3281C17.0055 17.1892 12.9632 13.147 12.9632 13.147L10.9043 15.2059C10.9043 15.2059 14.9466 19.2482 15.0855 19.387C15.6544 19.9559 16.5755 19.9559 17.1444 19.387C17.7133 18.8182 17.7133 17.897 17.1444 17.3281Z" fill="#637381"/>
<path d="M8.93969 19.3857C9.07858 19.2468 15.7464 12.5789 15.7464 12.5789L13.6875 10.52C13.6875 10.52 7.01966 17.1879 6.88077 17.3268C6.31188 17.8957 6.31188 18.8168 6.88077 19.3857C7.44856 19.9546 8.37079 19.9546 8.93969 19.3857Z" fill="#637381"/>
<path d="M17.4622 13.0568C18.8763 11.6426 19.0673 9.54082 17.8887 8.36231C16.7102 7.1838 14.6084 7.37485 13.1943 8.78902C11.7802 10.2032 11.5892 12.305 12.7677 13.4835C13.9463 14.662 16.0481 14.471 17.4622 13.0568Z" fill="#637381"/>
<path d="M7.60836 13.4296L10.5595 10.4785L7.54169 7.46178C7.33613 7.25511 7.00279 7.25511 6.79612 7.46067L6.57723 7.67845C5.26722 8.98069 5.26388 11.0974 6.57168 12.4007L7.60836 13.4296Z" fill="#637381"/>
</svg>
