<svg width="24" height="24" viewBox="0 0 24 24" fill="none" xmlns="http://www.w3.org/2000/svg">
<path opacity="0.32" d="M5.3414 6.98282C5.47456 6.69987 5.55215 6.38551 5.55836 6.05323C5.56141 5.88993 5.54692 5.73033 5.51714 5.57598C5.3166 4.53629 4.40998 3.73967 3.3099 3.7191C2.04642 3.69548 0.99934 4.70413 0.975721 5.96757C0.952102 7.231 1.96075 8.27812 3.22423 8.30174C3.66587 8.31 4.08089 8.19177 4.4352 7.98098L5.33179 8.79475C5.59448 8.42769 5.8989 8.09263 6.23821 7.79687L5.3414 6.98282Z" fill="#637381"/>
<path opacity="0.32" d="M17.1448 0.242441C15.6115 0.272051 14.3882 1.54357 14.4178 3.07692C14.4216 3.27513 14.4466 3.46802 14.4898 3.65383C14.5864 4.06941 14.7765 4.44855 15.0359 4.76915L13.2441 7.14278C13.6337 7.37164 13.9946 7.64499 14.3192 7.95602L16.1113 5.5822C16.4614 5.73162 16.8476 5.81182 17.2522 5.80401C18.7855 5.7744 20.0089 4.50288 19.9793 2.96953C19.9497 1.43617 18.6781 0.212832 17.1448 0.242441Z" fill="#637381"/>
<path opacity="0.32" d="M5.96342 19.2034L7.2724 17.4422C6.88083 17.2162 6.51798 16.9457 6.19118 16.637L4.88242 18.3979C4.54869 18.2585 4.18233 18.1823 3.79848 18.1844C2.26491 18.1928 1.02408 19.4473 1.0325 20.9809C1.04093 22.5146 2.29543 23.7553 3.829 23.7469C5.36257 23.7385 6.6034 22.484 6.59498 20.9504C6.59398 20.7681 6.57485 20.5902 6.5403 20.4178C6.44908 19.9632 6.24703 19.5487 5.96342 19.2034Z" fill="#637381"/>
<path opacity="0.32" d="M19.4299 14.3051C18.3371 14.2933 17.3492 14.7611 16.6654 15.5117L15.6163 14.8623C15.4238 15.2728 15.1843 15.6567 14.9049 16.0074L15.9542 16.657C15.7976 17.059 15.709 17.4949 15.704 17.9512C15.7014 18.1927 15.7229 18.4289 15.765 18.6581C16.0771 20.3574 17.5591 21.6577 19.3501 21.6771C21.3825 21.6991 23.054 20.0634 23.076 18.031C23.098 15.9985 21.4624 14.3271 19.4299 14.3051Z" fill="#637381"/>
<path opacity="0.32" d="M10.2481 6.24365C6.9397 6.24365 4.24805 8.93524 4.24805 12.2436C4.24805 15.5519 6.93963 18.2436 10.2481 18.2436C13.5565 18.2436 16.248 15.552 16.248 12.2436C16.248 8.93524 13.5565 6.24365 10.2481 6.24365Z" fill="#637381"/>
<circle cx="10.2422" cy="12.2441" r="4" fill="#637381"/>
</svg>
