<svg width="24" height="25" viewBox="0 0 24 25" fill="none" xmlns="http://www.w3.org/2000/svg">
<g clip-path="url(#clip0_8955_2078)">
<path opacity="0.32" fill-rule="evenodd" clip-rule="evenodd" d="M14.8423 11.7816C14.7491 11.3534 14.5312 10.9624 14.216 10.6579C13.9009 10.3534 13.5026 10.1491 13.0714 10.0707L13.0714 22.4393C13.6378 23.172 14.3916 23.738 15.2532 24.0776C16.1148 24.4171 17.0521 24.5176 17.9661 24.3683C18.88 24.219 19.7367 23.8255 20.4454 23.2295C21.1542 22.6335 21.6888 21.857 21.9926 20.9822C21.5361 20.9372 21.0875 20.8317 20.6589 20.6685C19.6389 20.2845 18.5297 19.5285 17.6194 18.2067C17.4583 17.9726 17.3967 17.684 17.4483 17.4045C17.4999 17.1249 17.6604 16.8773 17.8946 16.7162C18.1287 16.555 18.4173 16.4934 18.6968 16.545C18.9764 16.5966 19.224 16.7572 19.3851 16.9913C20.04 17.9427 20.7909 18.4296 21.4131 18.6627C21.7286 18.7827 22.0097 18.8342 22.2291 18.8513L22.2686 18.8547C23.3314 17.6993 24 15.4639 24 13.597C24 12.3387 23.6966 11.0976 23.172 10.045L23.0366 10.0707C22.1451 10.225 21.4354 10.9005 21.2349 11.7816L21.1937 11.9565C20.4257 15.3285 15.6137 15.3079 14.8749 11.929L14.8423 11.7816ZM10.9286 8.72502C10.5782 8.18149 10.3919 7.54854 10.3919 6.90188C10.3919 6.25523 10.5782 5.62227 10.9286 5.07874V4.18731C10.3333 3.48762 9.53765 2.98746 8.64906 2.75436C7.76048 2.52126 6.82177 2.56646 5.95969 2.88385C5.09761 3.20124 4.3537 3.77554 3.8284 4.52918C3.30311 5.28283 3.02174 6.17952 3.02229 7.09817V7.1016C3.08914 7.77017 3.36171 8.26731 3.67714 8.62731C4.06971 9.07474 4.48286 9.25817 4.58057 9.27874C4.7179 9.30992 4.84774 9.36784 4.96268 9.4492C5.07762 9.53056 5.17541 9.63376 5.25046 9.75291C5.32552 9.87206 5.37637 10.0048 5.40012 10.1436C5.42386 10.2824 5.42004 10.4246 5.38886 10.5619C5.35768 10.6992 5.29976 10.829 5.2184 10.944C5.13704 11.0589 5.03384 11.1567 4.91469 11.2318C4.79554 11.3068 4.66277 11.3577 4.52397 11.3814C4.38516 11.4052 4.24304 11.4013 4.10571 11.3702C3.48857 11.2279 2.7 10.7616 2.06571 10.0416C1.8087 9.74819 1.58823 9.42468 1.40914 9.07817C0.534857 10.2867 0 11.9273 0 13.597C0 14.857 0.305143 16.285 0.828 17.4336C0.965143 17.2793 1.11429 17.1387 1.27371 17.0153C1.38319 16.9207 1.51069 16.8493 1.64851 16.8053C1.78634 16.7614 1.93165 16.7458 2.07567 16.7595C2.21969 16.7732 2.35944 16.8159 2.48649 16.8851C2.61355 16.9543 2.72528 17.0485 2.81495 17.162C2.90461 17.2756 2.97036 17.4061 3.00822 17.5457C3.04608 17.6853 3.05527 17.8312 3.03524 17.9745C3.01521 18.1177 2.96637 18.2555 2.89166 18.3794C2.81696 18.5032 2.71794 18.6107 2.60057 18.6953C2.29543 18.937 1.97657 19.4565 1.78114 20.0582C1.92999 21.0542 2.36832 21.9846 3.04163 22.7336C3.71493 23.4826 4.59352 24.0171 5.56818 24.2709C6.54283 24.5246 7.57056 24.4862 8.5236 24.1606C9.47664 23.8349 10.313 23.2364 10.9286 22.4393L10.9286 16.1479C10.239 16.707 9.40265 17.0553 8.52 17.1507C8.38008 17.1664 8.23846 17.1543 8.10321 17.1152C7.96796 17.0761 7.84173 17.0108 7.73173 16.9229C7.62173 16.8351 7.53012 16.7264 7.46212 16.6031C7.39413 16.4798 7.35107 16.3444 7.33543 16.2045C7.31978 16.0645 7.33185 15.9229 7.37094 15.7877C7.41002 15.6524 7.47537 15.5262 7.56324 15.4162C7.65111 15.3062 7.75979 15.2146 7.88306 15.1466C8.00634 15.0786 8.1418 15.0355 8.28171 15.0199C9.15429 14.9239 9.78857 14.4216 10.2411 13.7616C10.7006 13.093 10.8994 12.3593 10.9286 12.0079V8.72502Z" fill="#02D2C5"/>
<path fill-rule="evenodd" clip-rule="evenodd" d="M16.7389 2.39134C17.0527 0.959915 19.0944 0.951343 19.4201 2.38277L19.4372 2.45134L19.4664 2.58334C19.8435 4.18449 21.1378 5.40849 22.7612 5.68963C24.2561 5.9502 24.2561 8.09649 22.7612 8.35706C21.9638 8.49586 21.2251 8.86719 20.638 9.42442C20.0509 9.98164 19.6415 10.6999 19.4612 11.4891C19.4612 11.4891 19.4406 11.5979 19.4201 11.6656C19.1169 12.6678 17.0272 12.6602 16.7389 11.6536C16.7223 11.5955 16.7047 11.5028 16.7047 11.5028C16.5314 10.7111 16.1263 9.98893 15.541 9.42837C14.9558 8.86782 14.2168 8.49427 13.4184 8.35534C11.9269 8.09477 11.9269 5.95192 13.4184 5.69306C14.2147 5.55478 14.952 5.18312 15.5367 4.6252C16.1215 4.06729 16.5274 3.34827 16.7029 2.55934L16.7269 2.44963L16.7389 2.39134Z" fill="#02D2C5"/>
</g>
<defs>
<clipPath id="clip0_8955_2078">
<rect width="24" height="24" fill="white" transform="translate(0 0.813477)"/>
</clipPath>
</defs>
</svg>
