<svg width="24" height="24" viewBox="0 0 24 24" fill="none" xmlns="http://www.w3.org/2000/svg">
<g clip-path="url(#clip0_9344_82387)">
<path opacity="0.32" d="M4.28613 18.6612V6.16697C4.28613 4.57444 5.57688 3.28369 7.16941 3.28369H16.7803C18.3729 3.28369 19.6636 4.57444 19.6636 6.16697V18.6612C19.6636 20.2537 18.3729 21.5445 16.7803 21.5445H7.16941C5.57688 21.5445 4.28613 20.2537 4.28613 18.6612Z" fill="#637381"/>
<path d="M8.13004 11.9334C8.66084 11.9334 9.09113 11.5031 9.09113 10.9723C9.09113 10.4415 8.66084 10.0112 8.13004 10.0112C7.59924 10.0112 7.16895 10.4415 7.16895 10.9723C7.16895 11.5031 7.59924 11.9334 8.13004 11.9334Z" fill="#637381"/>
<path d="M8.13004 15.7777C8.66084 15.7777 9.09113 15.3474 9.09113 14.8166C9.09113 14.2858 8.66084 13.8555 8.13004 13.8555C7.59924 13.8555 7.16895 14.2858 7.16895 14.8166C7.16895 15.3474 7.59924 15.7777 8.13004 15.7777Z" fill="#637381"/>
<path d="M15.8201 8.08918H11.9757C11.4443 8.08918 11.0146 7.65861 11.0146 7.12809C11.0146 6.59756 11.4443 6.16699 11.9757 6.16699H15.8201C16.3516 6.16699 16.7812 6.59756 16.7812 7.12809C16.7812 7.65861 16.3516 8.08918 15.8201 8.08918Z" fill="#637381"/>
<path d="M15.8201 11.9334H11.9757C11.4443 11.9334 11.0146 11.5028 11.0146 10.9723C11.0146 10.4418 11.4443 10.0112 11.9757 10.0112H15.8201C16.3516 10.0112 16.7812 10.4418 16.7812 10.9723C16.7812 11.5028 16.3516 11.9334 15.8201 11.9334Z" fill="#637381"/>
<path d="M8.13004 8.08918C8.66084 8.08918 9.09113 7.65888 9.09113 7.12809C9.09113 6.59729 8.66084 6.16699 8.13004 6.16699C7.59924 6.16699 7.16895 6.59729 7.16895 7.12809C7.16895 7.65888 7.59924 8.08918 8.13004 8.08918Z" fill="#637381"/>
<path d="M19.7971 23.105C19.0023 23.6769 17.8874 23.5087 17.1954 22.8167L11.5903 17.2116C11.2222 16.8425 11.0146 16.3428 11.0146 15.8209V14.6109C11.0146 14.1938 11.353 13.8555 11.7701 13.8555H12.9801C13.501 13.8555 14.0017 14.0631 14.3698 14.4312L20.0489 20.1103C20.8937 20.9551 20.8101 22.3756 19.7971 23.105Z" fill="#637381"/>
</g>
<defs>
<clipPath id="clip0_9344_82387">
<rect width="22" height="22" fill="white" transform="translate(1 1)"/>
</clipPath>
</defs>
</svg>
