<?xml version="1.0" standalone="no"?>
<!DOCTYPE svg PUBLIC "-//W3C//DTD SVG 20010904//EN"
 "http://www.w3.org/TR/2001/REC-SVG-20010904/DTD/svg10.dtd">
<svg version="1.0" xmlns="http://www.w3.org/2000/svg"
 width="197.000000pt" height="53.000000pt" viewBox="0 0 197.000000 53.000000"
 preserveAspectRatio="xMidYMid meet">
<metadata>
Created by potrace 1.16, written by Peter Selinger 2001-2019
</metadata>
<g transform="translate(0.000000,53.000000) scale(0.100000,-0.100000)"
fill="#000000" stroke="none">
<path d="M0 265 l0 -265 985 0 985 0 0 265 0 265 -985 0 -985 0 0 -265z m1296
208 c-2 -10 -17 -88 -31 -173 -28 -164 -31 -174 -46 -164 -5 3 -7 10 -4 15 9
14 -7 10 -29 -6 -38 -29 -89 -17 -111 26 -29 54 -8 160 40 199 25 20 89 19
113 -3 20 -18 20 -17 33 52 8 48 17 71 26 71 9 0 12 -7 9 -17z m510 -20 c-4
-21 -9 -53 -13 -70 l-5 -33 39 22 c50 27 86 20 103 -22 10 -24 9 -46 -4 -121
-8 -50 -18 -94 -21 -97 -14 -15 -17 14 -6 77 17 108 15 140 -12 152 -29 13
-71 -2 -91 -33 -8 -13 -21 -61 -30 -107 -16 -85 -21 -99 -32 -88 -6 6 38 294
52 340 10 34 26 18 20 -20z m-340 -86 l27 -24 -13 -106 c-13 -101 -23 -127
-36 -92 -5 13 -9 13 -34 0 -73 -38 -142 8 -118 77 12 34 63 58 121 58 37 0 47
4 52 20 8 26 -11 59 -39 66 -25 6 -86 -20 -86 -36 0 -6 -7 -10 -15 -10 -26 0
2 40 38 55 46 20 72 18 103 -8z m-1278 -3 c20 -14 22 -14 22 0 0 11 10 16 30
16 l30 0 0 -132 c0 -147 -13 -192 -60 -215 -48 -24 -160 -9 -160 21 1 28 16
36 50 26 19 -6 41 -10 47 -10 20 0 53 38 53 59 0 17 -4 18 -33 9 -96 -29 -170
85 -121 187 24 52 95 72 142 39z m162 -11 c1 -24 2 -26 13 -12 16 21 51 39 76
39 15 0 21 -6 21 -23 0 -17 -9 -26 -34 -35 -50 -18 -60 -37 -66 -116 l-5 -71
-32 -3 -33 -3 0 125 0 126 30 0 c26 0 30 -4 30 -27z m301 11 c77 -39 76 -179
-2 -219 -45 -24 -121 -16 -154 15 -63 59 -46 180 30 211 33 13 94 10 126 -7z
m138 -54 l15 -65 20 68 c19 66 21 68 50 65 27 -3 31 -8 45 -60 9 -31 19 -59
22 -63 4 -3 9 17 13 45 10 74 14 80 53 80 28 0 33 -3 29 -17 -3 -10 -14 -55
-26 -100 -31 -126 -36 -135 -67 -131 -24 3 -28 10 -48 83 l-22 80 -17 -60
c-28 -99 -33 -107 -63 -103 -25 3 -28 9 -55 113 -35 140 -35 137 4 133 32 -3
33 -5 47 -68z"/>
<path d="M1143 358 c-50 -24 -74 -156 -35 -191 44 -40 108 -1 123 73 13 68 11
88 -11 110 -22 22 -43 24 -77 8z"/>
</g>
</svg>
