<svg
  width="96"
  height="96"
  viewBox="0 0 96 96"
  fill="none"
  xmlns="http://www.w3.org/2000/svg"
>
<path
    d="M36.3238 29.3905V37.1505C36.3238 39.8031 34.1734 41.9535 31.5208 41.9535C28.8682 41.9535 26.7178 39.8031 26.7178 37.1505V29.3905C26.7178 17.7136 36.1226 8.19195 47.7552 8.00268L48.1085 8C59.7856 8 69.3069 17.4049 69.4962 29.0373L69.499 29.3905V37.1505C69.499 39.8031 67.3487 41.9535 64.6961 41.9535C62.0434 41.9535 59.8931 39.8031 59.8931 37.1505V29.3905C59.8931 22.9575 54.7117 17.7118 48.3031 17.6075L48.1085 17.6059C41.6103 17.6059 36.3238 22.8925 36.3238 29.3905Z"
    fill="#FFD666"
  />
<g style="mix-blend-mode:overlay" filter="url(#filter0_i_595_10172)">
<path
      d="M36.3238 29.3905V41.9535H26.7178V29.3905C26.7178 17.7136 36.1226 8.19195 47.7552 8.00268L48.1085 8C59.7856 8 69.3069 17.4049 69.4962 29.0373L69.499 29.3905V41.9535H59.8931V29.3905C59.8931 22.9575 54.7117 17.7118 48.3031 17.6075L48.1085 17.6059C41.6103 17.6059 36.3238 22.8925 36.3238 29.3905Z"
      fill="white"
      fill-opacity="0.08"
    />
</g>
<path
    fill-rule="evenodd"
    clip-rule="evenodd"
    d="M79.2169 68.1275C79.2169 79.1055 70.3177 88.0047 59.3399 88.0047H36.8771C25.8992 88.0047 17 79.1055 17 68.1275V47.8769C17 43.3057 20.7056 39.6001 25.2769 39.6001H48.1075L48.1085 39.6007L70.94 39.6001C75.5113 39.6001 79.2169 43.3057 79.2169 47.8769V68.1275ZM44.5109 66.8621C44.5109 68.8492 46.1218 70.4601 48.1089 70.4601H49.5008C50.7192 70.4601 51.7069 69.4724 51.7069 68.254C51.7069 67.3451 52.2769 66.5489 53.0652 66.0965C53.8915 65.6222 54.6536 65.029 55.3191 64.3292C57.2141 62.3285 58.1785 59.7142 58.0344 56.9604C57.7658 51.7841 53.4962 47.6487 48.3104 47.5434C48.289 47.543 48.2677 47.543 48.2463 47.543L48.112 47.5445C48.1112 47.5445 48.1104 47.5443 48.1097 47.5439C48.109 47.5436 48.1083 47.5434 48.1075 47.5434C43.4654 47.544 38.9555 51.1224 38.26 56.1016C38.189 56.6459 38.6269 57.1041 39.1759 57.1041H45.3796C45.3847 57.1041 45.3889 57.0999 45.3889 57.0948C45.4151 56.9074 45.4596 56.7267 45.5206 56.5545L45.5412 56.4982C45.5512 56.4718 45.5616 56.4456 45.5724 56.4196L45.5999 56.3557C45.664 56.2116 45.74 56.0745 45.8267 55.9454C45.9407 55.7756 46.0732 55.6198 46.2213 55.4806C46.3192 55.3886 46.4239 55.3037 46.5346 55.227L46.6047 55.1799L46.6652 55.1418L46.7087 55.1157L46.7571 55.088C46.7824 55.0739 46.8079 55.0601 46.8338 55.0467C46.8792 55.0231 46.9253 55.0009 46.9722 54.9798L47.059 54.9427C47.1037 54.9244 47.1491 54.9073 47.195 54.8914L47.2544 54.8715C47.3302 54.8471 47.4076 54.8259 47.4862 54.808C47.5258 54.799 47.5658 54.7908 47.606 54.7835L47.6634 54.7737L47.7212 54.7651L47.7882 54.7567C47.8304 54.7519 47.8729 54.748 47.9156 54.7451L47.9774 54.7416L48.0395 54.7394L48.1076 54.7386C48.1082 54.7386 48.1087 54.7391 48.1087 54.7397C48.1087 54.7404 48.1092 54.7409 48.1098 54.7409L48.1665 54.7392C49.572 54.7681 50.7762 55.929 50.8481 57.3347C50.8865 58.0973 50.6226 58.8217 50.0997 59.3736L50.0514 59.4228L49.9918 59.4805C49.4961 59.9469 48.8633 60.2083 48.1845 60.2264L48.1095 60.2274L47.4332 60.2272C45.8192 60.2272 44.5109 61.5356 44.5109 63.1496V66.8621ZM48.1087 72.9748C48.1087 72.975 48.1088 72.975 48.1087 72.9748C46.151 72.9749 44.5635 74.5615 44.5635 76.519C44.5635 78.4763 46.1503 80.0633 48.1078 80.0634C48.1078 80.0632 48.1079 80.0633 48.1078 80.0634L48.1089 80.0632L48.1724 80.0626C50.1001 80.0283 51.6521 78.4549 51.6521 76.5188C51.6521 74.5617 50.0657 72.9753 48.1087 72.9748Z"
    fill="#00A76F"
  />
<g style="mix-blend-mode:overlay" filter="url(#filter1_i_595_10172)">
<path
      fill-rule="evenodd"
      clip-rule="evenodd"
      d="M79.2169 68.1275C79.2169 79.1055 70.3177 88.0047 59.3399 88.0047H36.8771C25.8992 88.0047 17 79.1055 17 68.1275V47.8769C17 43.3057 20.7056 39.6001 25.2769 39.6001H48.1075L48.1085 39.6007L70.94 39.6001C75.5113 39.6001 79.2169 43.3057 79.2169 47.8769V68.1275ZM44.5109 66.8621C44.5109 68.8492 46.1218 70.4601 48.1089 70.4601H49.5008C50.7192 70.4601 51.7069 69.4724 51.7069 68.254C51.7069 67.3451 52.2769 66.5489 53.0652 66.0965C53.8915 65.6222 54.6536 65.029 55.3191 64.3292C57.2141 62.3285 58.1785 59.7142 58.0344 56.9604C57.7658 51.7841 53.4962 47.6487 48.3104 47.5434C48.289 47.543 48.2677 47.543 48.2463 47.543L48.112 47.5445L48.1097 47.5439L48.1075 47.5434C43.4654 47.544 38.9555 51.1224 38.26 56.1016C38.189 56.6459 38.6269 57.1041 39.1759 57.1041H45.3796C45.3847 57.1041 45.3889 57.0999 45.3889 57.0948C45.4151 56.9074 45.4596 56.7267 45.5206 56.5545L45.5412 56.4982C45.5512 56.4718 45.5616 56.4456 45.5724 56.4196L45.5999 56.3557C45.664 56.2116 45.74 56.0745 45.8267 55.9454C45.9407 55.7756 46.0732 55.6198 46.2213 55.4806C46.3192 55.3886 46.4239 55.3037 46.5346 55.227L46.6047 55.1799L46.6652 55.1418L46.7087 55.1157L46.7571 55.088C46.7824 55.0739 46.8079 55.0601 46.8338 55.0467C46.8792 55.0231 46.9253 55.0009 46.9722 54.9798L47.059 54.9427C47.1037 54.9244 47.1491 54.9073 47.195 54.8914L47.2544 54.8715C47.3302 54.8471 47.4076 54.8259 47.4862 54.808C47.5258 54.799 47.5658 54.7908 47.606 54.7835L47.6634 54.7737L47.7212 54.7651L47.7882 54.7567C47.8304 54.7519 47.8729 54.748 47.9156 54.7451L47.9774 54.7416L48.0395 54.7394L48.1076 54.7386L48.1087 54.7397L48.1098 54.7409L48.1665 54.7392C49.572 54.7681 50.7762 55.929 50.8481 57.3347C50.8865 58.0973 50.6226 58.8217 50.0997 59.3736L50.0514 59.4228L49.9918 59.4805C49.4961 59.9469 48.8633 60.2083 48.1845 60.2264L48.1095 60.2274L47.4332 60.2272C45.8192 60.2272 44.5109 61.5356 44.5109 63.1496V66.8621ZM48.1087 72.9748C46.151 72.9749 44.5635 74.5615 44.5635 76.519C44.5635 78.4763 46.1503 80.0633 48.1078 80.0634L48.1089 80.0632L48.1724 80.0626C50.1001 80.0283 51.6521 78.4549 51.6521 76.5188C51.6521 74.5617 50.0657 72.9753 48.1087 72.9748Z"
      fill="white"
      fill-opacity="0.08"
    />
</g>
<defs>
<filter
      id="filter0_i_595_10172"
      x="24.7178"
      y="6"
      width="44.7812"
      height="35.9535"
      filterUnits="userSpaceOnUse"
      color-interpolation-filters="sRGB"
    >
<feFlood flood-opacity="0" result="BackgroundImageFix" />
<feBlend
        mode="normal"
        in="SourceGraphic"
        in2="BackgroundImageFix"
        result="shape"
      />
<feColorMatrix
        in="SourceAlpha"
        type="matrix"
        values="0 0 0 0 0 0 0 0 0 0 0 0 0 0 0 0 0 0 127 0"
        result="hardAlpha"
      />
<feOffset dx="-2" dy="-2" />
<feGaussianBlur stdDeviation="2" />
<feComposite in2="hardAlpha" operator="arithmetic" k2="-1" k3="1" />
<feColorMatrix
        type="matrix"
        values="0 0 0 0 0 0 0 0 0 0 0 0 0 0 0 0 0 0 0.4 0"
      />
<feBlend mode="normal" in2="shape" result="effect1_innerShadow_595_10172" />
</filter>
<filter
      id="filter1_i_595_10172"
      x="15"
      y="37.6001"
      width="64.2169"
      height="50.4045"
      filterUnits="userSpaceOnUse"
      color-interpolation-filters="sRGB"
    >
<feFlood flood-opacity="0" result="BackgroundImageFix" />
<feBlend
        mode="normal"
        in="SourceGraphic"
        in2="BackgroundImageFix"
        result="shape"
      />
<feColorMatrix
        in="SourceAlpha"
        type="matrix"
        values="0 0 0 0 0 0 0 0 0 0 0 0 0 0 0 0 0 0 127 0"
        result="hardAlpha"
      />
<feOffset dx="-2" dy="-2" />
<feGaussianBlur stdDeviation="2" />
<feComposite in2="hardAlpha" operator="arithmetic" k2="-1" k3="1" />
<feColorMatrix
        type="matrix"
        values="0 0 0 0 0 0 0 0 0 0 0 0 0 0 0 0 0 0 0.24 0"
      />
<feBlend mode="normal" in2="shape" result="effect1_innerShadow_595_10172" />
</filter>
</defs>
</svg>
