<svg xmlns="http://www.w3.org/2000/svg" width="137" height="26" viewBox="0 0 137 26" fill="none">
<path d="M120.641 0C120.145 0 119.742 0.402412 119.742 0.898618V7.20112H136.39L128.809 0.000581339L120.641 0Z" fill="#B3B7BC"/>
<path d="M136.997 9.10899C136.997 8.61161 136.597 8.21094 136.098 8.21094H129.797V24.8597L136.994 17.2747L136.997 9.10899Z" fill="#B3B7BC"/>
<path d="M127.891 25.4622C128.387 25.4622 128.789 25.0592 128.789 24.5619V18.2617H112.141L119.723 25.4611L127.891 25.4622Z" fill="#B3B7BC"/>
<path d="M111.531 16.3539C111.531 16.8507 111.934 17.2554 112.432 17.2554H118.731V0.605469L111.532 8.18814L111.531 16.3539Z" fill="#B3B7BC"/>
<path d="M35.2223 3.04253V10.7312H24.5107V3.04253L20.6094 3.03906V22.4254H24.5107V14.0969H35.2223V22.4254H39.1301V3.04253H35.2223Z" fill="#B3B7BC"/>
<path d="M87.125 3.03906V22.4173H104.241L102.073 19.0058H91.0374V14.0935H101.724V10.8076H91.0374V6.37067H102.055L104.178 3.03906H87.125Z" fill="#B3B7BC"/>
<path d="M6.10796 3.03516C2.04971 3.03516 0 5.50231 0 9.09216V16.3286C0 20.483 2.64143 22.4226 6.08769 22.4226L18.3279 22.4215L16.0588 18.878H6.84387C4.88624 18.878 4.03337 18.1704 4.03337 15.9794V9.41408C4.03337 7.29607 4.75134 6.46983 6.89598 6.46983H16.1549L18.3337 3.03516H6.10796Z" fill="#B3B7BC"/>
<path d="M70.0017 3.03197C67.6579 3.03197 65.2556 4.4407 65.2556 8.06413V8.99516C65.2556 12.7726 67.567 14.2138 69.8795 14.2236H77.9966C78.8397 14.2236 79.5246 14.3637 79.5246 15.7887L79.5235 17.4348C79.502 18.715 78.8634 19.0079 77.9677 19.0079H67.2891L65.1016 22.4194H78.219C81.3821 22.4194 83.5296 20.8457 83.5296 17.2107V15.8749C83.5296 12.3604 81.5344 10.6998 78.4407 10.6998H70.6901C69.8309 10.6998 69.2322 10.4653 69.2322 9.19261V7.8522C69.2322 6.76831 69.6427 6.37285 70.6438 6.37285L80.8135 6.36879L82.939 3.02734L70.0017 3.03197Z" fill="#B3B7BC"/>
<path d="M50.4652 3.04297L41.2734 22.4246H45.6177L47.408 18.422H57.3965L59.181 22.4246H63.5444L54.3312 3.04297H50.4652ZM52.3927 7.06707L55.9246 15.1228H48.8833L52.3927 7.06707Z" fill="#B3B7BC"/>
</svg>