<svg xmlns="http://www.w3.org/2000/svg" width="98" height="33" viewBox="0 0 98 33" fill="none">
<path d="M41.9391 16.9753C41.9391 21.6166 38.3082 25.0366 33.8523 25.0366C29.3965 25.0366 25.7656 21.6166 25.7656 16.9753C25.7656 12.3014 29.3965 8.91406 33.8523 8.91406C38.3082 8.91406 41.9391 12.3014 41.9391 16.9753ZM38.3991 16.9753C38.3991 14.075 36.2947 12.0906 33.8523 12.0906C31.41 12.0906 29.3056 14.075 29.3056 16.9753C29.3056 19.8466 31.41 21.8601 33.8523 21.8601C36.2947 21.8601 38.3991 19.8429 38.3991 16.9753Z" fill="#B3B7BC"/>
<path d="M59.3844 16.9753C59.3844 21.6166 55.7535 25.0366 51.2977 25.0366C46.8418 25.0366 43.2109 21.6166 43.2109 16.9753C43.2109 12.305 46.8418 8.91406 51.2977 8.91406C55.7535 8.91406 59.3844 12.3014 59.3844 16.9753ZM55.8444 16.9753C55.8444 14.075 53.74 12.0906 51.2977 12.0906C48.8553 12.0906 46.7509 14.075 46.7509 16.9753C46.7509 19.8466 48.8553 21.8601 51.2977 21.8601C53.74 21.8601 55.8444 19.8429 55.8444 16.9753Z" fill="#B3B7BC"/>
<path d="M76.1022 9.40108V23.8736C76.1022 29.8269 72.5913 32.2583 68.4408 32.2583C64.5337 32.2583 62.1822 29.6451 61.2954 27.5081L64.3774 26.2251C64.9262 27.5371 66.271 29.0854 68.4371 29.0854C71.0939 29.0854 72.7403 27.4463 72.7403 24.3606V23.2012H72.6168C71.8245 24.1789 70.298 25.033 68.3717 25.033C64.3411 25.033 60.6484 21.5221 60.6484 17.0044C60.6484 12.454 64.3411 8.91406 68.3717 8.91406C70.2943 8.91406 71.8208 9.76816 72.6168 10.7168H72.7403V9.40472H76.1022V9.40108ZM72.9911 17.0044C72.9911 14.1659 71.0976 12.0906 68.6879 12.0906C66.2455 12.0906 64.1993 14.1659 64.1993 17.0044C64.1993 19.8139 66.2455 21.8601 68.6879 21.8601C71.0976 21.8601 72.9911 19.8139 72.9911 17.0044Z" fill="#B3B7BC"/>
<path d="M81.6481 0.917969V24.5421H78.1953V0.917969H81.6481Z" fill="#B3B7BC"/>
<path d="M95.1011 19.6321L97.8488 21.4639C96.962 22.776 94.8249 25.0366 91.1323 25.0366C86.5529 25.0366 83.1328 21.4966 83.1328 16.9753C83.1328 12.1815 86.5819 8.91406 90.7361 8.91406C94.9194 8.91406 96.9656 12.2432 97.6344 14.0423L98.0015 14.9582L87.2252 19.4213C88.0503 21.0387 89.3332 21.8637 91.1323 21.8637C92.935 21.8637 94.1853 20.9769 95.1011 19.6321ZM86.6437 16.7318L93.8473 13.7406C93.4511 12.7339 92.259 12.0324 90.8561 12.0324C89.057 12.0324 86.5529 13.6207 86.6437 16.7318Z" fill="#B3B7BC"/>
<path d="M12.6952 14.8796V11.4595H24.2202C24.3328 12.0556 24.391 12.7607 24.391 13.5239C24.391 16.0898 23.6895 19.2627 21.4289 21.5234C19.23 23.8131 16.4206 25.0343 12.6989 25.0343C5.80063 25.0343 0 19.4154 0 12.5171C0 5.6189 5.80063 0 12.6989 0C16.5151 0 19.2337 1.4974 21.2762 3.44912L18.8629 5.86241C17.3982 4.48858 15.4138 3.42004 12.6952 3.42004C7.65785 3.42004 3.71807 7.47976 3.71807 12.5171C3.71807 17.5545 7.65785 21.6142 12.6952 21.6142C15.9626 21.6142 17.8235 20.3022 19.0156 19.1101C19.9824 18.1433 20.6184 16.7622 20.8692 14.8759L12.6952 14.8796Z" fill="#B3B7BC"/>
</svg>