<svg xmlns="http://www.w3.org/2000/svg" width="122" height="25" viewBox="0 0 122 25" fill="none">
<path fill-rule="evenodd" clip-rule="evenodd" d="M18.7026 5.66475C18.7026 8.79361 16.1646 11.3301 13.0336 11.3301C9.90254 11.3301 7.36449 8.79361 7.36449 5.66475C7.36449 2.53653 9.90254 0 13.0336 0C16.1646 0 18.7026 2.53653 18.7026 5.66475ZM5.66914 12.7465C2.53818 12.7465 0 15.2823 0 18.4111C0 21.5397 2.53818 24.076 5.66914 24.076C8.80022 24.076 11.3385 21.5397 11.3385 18.4111C11.3385 15.2823 8.80022 12.7465 5.66914 12.7465ZM20.398 12.746C17.267 12.746 14.7289 15.2823 14.7289 18.4111C14.7289 21.5397 17.267 24.076 20.398 24.076C23.5289 24.076 26.0671 21.5397 26.0671 18.4111C26.0671 15.2823 23.5289 12.746 20.398 12.746Z" fill="#B3B7BC"/>
<path fill-rule="evenodd" clip-rule="evenodd" d="M46.0098 18.3455C46.0837 19.1859 46.7564 20.2556 47.9219 20.2556H48.6038C48.8681 20.2556 49.0848 20.0391 49.0848 19.7747V4.78877H49.0818C49.068 4.5363 48.8593 4.3341 48.6038 4.3341H46.4908C46.2353 4.3341 46.0266 4.5363 46.0124 4.78877H46.0098V6.00646C44.7152 4.41186 42.6741 3.75 40.6272 3.75C35.9747 3.75 32.2031 7.52165 32.2031 12.1745C32.2031 16.8276 35.9747 20.5994 40.6272 20.5994V20.5998C42.6741 20.5998 44.9047 19.8056 46.0095 18.3435L46.0098 18.3455ZM40.6355 17.6509C37.6765 17.6509 35.2777 15.1992 35.2777 12.1745C35.2777 9.15027 37.6765 6.69851 40.6355 6.69851C43.5944 6.69851 45.9929 9.15027 45.9929 12.1745C45.9929 15.1992 43.5944 17.6509 40.6355 17.6509Z" fill="#B3B7BC"/>
<path fill-rule="evenodd" clip-rule="evenodd" d="M80.4317 18.3455C80.5056 19.1859 81.1783 20.2556 82.3437 20.2556H83.0257C83.29 20.2556 83.5064 20.0391 83.5064 19.7747V4.78877H83.5037C83.4899 4.5363 83.2809 4.3341 83.0257 4.3341H80.9127C80.6571 4.3341 80.4484 4.5363 80.4341 4.78877H80.4317V6.00646C79.1369 4.41186 77.0958 3.75 75.0489 3.75C70.3965 3.75 66.625 7.52165 66.625 12.1745C66.625 16.8276 70.3965 20.5994 75.0489 20.5994V20.5998C77.0958 20.5998 79.3266 19.8056 80.4314 18.3435L80.4317 18.3455ZM75.0571 17.6509C72.0984 17.6509 69.6995 15.1992 69.6995 12.1745C69.6995 9.15027 72.0984 6.69851 75.0571 6.69851C78.0162 6.69851 80.4147 9.15027 80.4147 12.1745C80.4147 15.1992 78.0162 17.6509 75.0571 17.6509Z" fill="#B3B7BC"/>
<path fill-rule="evenodd" clip-rule="evenodd" d="M118.916 18.3455C118.99 19.1859 119.663 20.2556 120.828 20.2556H121.51C121.774 20.2556 121.991 20.0391 121.991 19.7747V4.78877H121.988C121.974 4.5363 121.766 4.3341 121.51 4.3341H119.397C119.142 4.3341 118.933 4.5363 118.919 4.78877H118.916V6.00646C117.622 4.41186 115.58 3.75 113.534 3.75C108.881 3.75 105.109 7.52165 105.109 12.1745C105.109 16.8276 108.881 20.5994 113.534 20.5994V20.5998C115.58 20.5998 117.811 19.8056 118.916 18.3435L118.916 18.3455ZM113.542 17.6509C110.583 17.6509 108.184 15.1992 108.184 12.1745C108.184 9.15027 110.583 6.69851 113.542 6.69851C116.501 6.69851 118.899 9.15027 118.899 12.1745C118.899 15.1992 116.501 17.6509 113.542 17.6509Z" fill="#B3B7BC"/>
<path fill-rule="evenodd" clip-rule="evenodd" d="M102.436 18.8638L102.435 11.1092H102.435C102.435 6.73795 99.6778 3.78906 95.2804 3.78906C93.1813 3.78906 91.4605 5.00292 90.8528 6.04566C90.7214 5.23032 90.2885 4.37329 88.9462 4.37329H88.262C87.9974 4.37329 87.7812 4.58995 87.7812 4.85431V18.3859V18.388V19.8415H87.7839C87.7978 20.0936 88.0067 20.2961 88.2622 20.2961H90.3752C90.4076 20.2961 90.4393 20.2922 90.47 20.2862C90.4839 20.2835 90.497 20.278 90.5105 20.2742C90.5263 20.2693 90.5426 20.2656 90.5576 20.2595C90.5764 20.2517 90.5934 20.2412 90.6109 20.2315C90.6195 20.2262 90.6285 20.2225 90.6368 20.217C90.6579 20.2035 90.6772 20.1871 90.6958 20.1703C90.6989 20.1673 90.7026 20.1652 90.7057 20.1624C90.7267 20.1421 90.7459 20.1197 90.7629 20.0964L90.763 20.096C90.8159 20.0234 90.848 19.9359 90.8533 19.8415H90.856V10.989C90.856 8.6413 92.7593 6.73795 95.1071 6.73795C97.4548 6.73795 99.3582 8.6413 99.3582 10.989L99.3601 18.3885L99.3606 18.3859C99.3606 18.3925 99.3616 18.3992 99.3616 18.4063V19.8415H99.3644C99.3784 20.0936 99.5871 20.2961 99.8426 20.2961H101.956C101.988 20.2961 102.02 20.2922 102.05 20.2862C102.063 20.2839 102.074 20.2789 102.087 20.2755C102.104 20.2705 102.122 20.2661 102.138 20.2595C102.156 20.2523 102.171 20.2423 102.188 20.2331C102.198 20.2275 102.208 20.2234 102.218 20.217C102.237 20.2042 102.255 20.1887 102.273 20.1734C102.277 20.1693 102.282 20.1662 102.286 20.162C102.306 20.1427 102.324 20.1219 102.341 20.1C102.342 20.0983 102.343 20.097 102.344 20.0954C102.396 20.0234 102.428 19.9365 102.434 19.8428C102.434 19.8422 102.434 19.8415 102.434 19.8415H102.437V18.864L102.436 18.8638Z" fill="#B3B7BC"/>
<path fill-rule="evenodd" clip-rule="evenodd" d="M54.1317 16.1994C55.5423 17.1766 57.082 17.6512 58.5616 17.6512C59.9712 17.6512 61.4285 16.9204 61.4285 15.6485C61.4285 13.9503 58.253 13.6861 56.258 13.008C54.2625 12.3299 52.5438 10.9281 52.5438 8.65813C52.5438 5.18461 55.6387 3.75 58.5274 3.75C60.3576 3.75 62.246 4.35354 63.4703 5.21812C63.8919 5.5376 63.6351 5.9044 63.6351 5.9044L62.4665 7.57357C62.3351 7.76158 62.1054 7.92401 61.7757 7.72052C61.446 7.51717 60.2897 6.69864 58.5274 6.69864C56.7649 6.69864 55.7033 7.51257 55.7033 8.52141C55.7033 9.73117 57.0831 10.1117 58.6992 10.524C61.5156 11.2832 64.5879 12.1957 64.5879 15.6485C64.5879 18.7089 61.7254 20.6003 58.5616 20.6003C56.1641 20.6003 54.1228 19.9168 52.4109 18.6605C52.0542 18.3035 52.3034 17.9721 52.3034 17.9721L53.4663 16.3114C53.7029 16.0009 54.0012 16.1092 54.1317 16.1994Z" fill="#B3B7BC"/>
</svg>